<svg width="117" height="114" viewBox="0 0 117 114" fill="none" xmlns="http://www.w3.org/2000/svg">
<path d="M36.2751 36.7053C31.467 35.3316 28.4047 37.8501 27.4746 39.2811C26.616 38.7659 26.4014 37.3493 26.4014 36.7053C23.3105 36.4613 23.9687 42.1845 24.6842 45.0765L22.5377 42.9301C24.9418 53.9199 18.9603 56.5243 15.6691 56.4528C26.8307 48.0816 13.7373 40.5084 22.3231 34.3442C28.1185 30.1834 34.2002 34.058 36.2751 36.7053Z" fill="#282525"/>
<path d="M7.94189 56.2383C8.97219 60.1878 15.2398 59.7442 18.2449 59.0287C13.308 65.6827 6.01008 61.8191 4.72221 57.0969L3.86362 58.3848C3.17676 53.9201 1.00168 49.942 0 48.5111C4.50756 50.6575 5.1515 46.5077 5.1515 43.5742C7.89897 48.0389 12.7356 45.8638 14.8106 44.2182C15.6691 51.5161 6.65401 51.3015 7.94189 56.2383Z" fill="#282525"/>
<path d="M36.2751 109.81C31.467 111.184 28.4047 108.666 27.4746 107.235C26.616 107.75 26.4014 109.166 26.4014 109.81C23.3105 110.054 23.9687 104.331 24.6842 101.439L22.5377 103.586C24.9418 92.5957 18.9603 89.9913 15.6691 90.0629C26.8307 98.4341 13.7373 106.007 22.3231 112.171C28.1185 116.332 34.2002 112.458 36.2751 109.81Z" fill="#282525"/>
<path d="M7.94189 90.2773C8.97219 86.3278 15.2398 86.7714 18.2449 87.4869C13.308 80.8329 6.01008 84.6965 4.72221 89.4187L3.86362 88.1308C3.17676 92.5955 1.00168 96.5736 0 98.0046C4.50756 95.8581 5.1515 100.008 5.1515 102.941C7.89897 98.4768 12.7356 100.652 14.8106 102.297C15.6691 94.9995 6.65401 95.2142 7.94189 90.2773Z" fill="#282525"/>
<path d="M80.0631 36.7053C84.8711 35.3316 87.9334 37.8501 88.8635 39.2811C89.7221 38.7659 89.9368 37.3493 89.9368 36.7053C93.0277 36.4613 92.3694 42.1845 91.6539 45.0765L93.8004 42.9301C91.3964 53.9199 97.3778 56.5243 100.669 56.4528C89.5075 48.0816 102.601 40.5084 94.015 34.3442C88.2196 30.1834 82.138 34.058 80.0631 36.7053Z" fill="#282525"/>
<path d="M108.396 56.2383C107.366 60.1878 101.098 59.7442 98.0932 59.0287C103.03 65.6827 110.328 61.8191 111.616 57.0969L112.475 58.3848C113.161 53.9201 115.336 49.942 116.338 48.5111C111.831 50.6575 111.187 46.5077 111.187 43.5742C108.439 48.0389 103.602 45.8638 101.528 44.2182C100.669 51.5161 109.684 51.3015 108.396 56.2383Z" fill="#282525"/>
<path d="M80.0631 109.81C84.8711 111.184 87.9334 108.666 88.8635 107.235C89.7221 107.75 89.9368 109.166 89.9368 109.81C93.0277 110.054 92.3694 104.331 91.6539 101.439L93.8004 103.586C91.3964 92.5957 97.3778 89.9913 100.669 90.0629C89.5075 98.4341 102.601 106.007 94.015 112.171C88.2196 116.332 82.138 112.458 80.0631 109.81Z" fill="#282525"/>
<path d="M108.396 90.2773C107.366 86.3278 101.098 86.7714 98.0932 87.4869C103.03 80.8329 110.328 84.6965 111.616 89.4187L112.475 88.1308C113.161 92.5955 115.336 96.5736 116.338 98.0046C111.831 95.8581 111.187 100.008 111.187 102.941C108.439 98.4768 103.602 100.652 101.528 102.297C100.669 94.9995 109.684 95.2142 108.396 90.2773Z" fill="#282525"/>
<path fill-rule="evenodd" clip-rule="evenodd" d="M94.6589 72.3345C94.6589 92.4873 78.3219 108.824 58.1691 108.824C38.0164 108.824 21.6793 92.4873 21.6793 72.3345C21.6793 52.1818 38.0164 35.8447 58.1691 35.8447C78.3219 35.8447 94.6589 52.1818 94.6589 72.3345ZM58.1691 104.531C75.951 104.531 90.366 90.1164 90.366 72.3345C90.366 54.5527 75.951 40.1376 58.1691 40.1376C40.3873 40.1376 25.9722 54.5527 25.9722 72.3345C25.9722 90.1164 40.3873 104.531 58.1691 104.531Z" fill="#282525"/>
<path d="M57.3104 28.1178C49.068 28.1178 41.8559 29.978 39.2802 30.9082V29.4056C41.8559 28.4755 49.068 26.6152 57.3104 26.6152C65.5528 26.6152 72.7649 28.4755 75.3407 29.4056V30.9082C72.7649 29.978 65.5528 28.1178 57.3104 28.1178Z" fill="#282525"/>
<path d="M39.2802 33.6986C41.8559 32.7685 49.068 30.9082 57.3104 30.9082C65.5528 30.9082 72.7649 32.7685 75.3407 33.6986V31.7668C72.7649 30.8366 65.5528 28.9764 57.3104 28.9764C49.068 28.9764 41.8559 30.8366 39.2802 31.7668V33.6986Z" fill="#282525"/>
<path fill-rule="evenodd" clip-rule="evenodd" d="M97.6637 72.3356C97.6637 94.148 79.9813 111.83 58.1689 111.83C36.3565 111.83 18.6741 94.148 18.6741 72.3356C18.6741 50.5233 36.3565 32.8408 58.1689 32.8408C79.9813 32.8408 97.6637 50.5233 97.6637 72.3356ZM58.1689 110.543C79.27 110.543 96.3759 93.4368 96.3759 72.3356C96.3759 51.2345 79.27 34.1287 58.1689 34.1287C37.0678 34.1287 19.9619 51.2345 19.9619 72.3356C19.9619 93.4368 37.0678 110.543 58.1689 110.543Z" fill="#282525"/>
<path d="M23.1818 18.0302C28.505 18.5454 35.989 25.2566 39.0656 28.5479C41.6413 27.6177 48.8534 25.7575 57.0958 25.7575C65.3382 25.7575 72.5503 27.6177 75.1261 28.5479C78.2026 25.2566 85.6866 18.5454 91.0098 18.0302C90.4375 17.1716 88.6058 15.7121 85.8583 16.7424C85.5722 16.2415 84.7422 15.2398 83.7119 15.2398C83.9981 16.8139 84.0553 19.8762 81.9947 19.5328C79.9341 19.1893 81.2792 16.957 82.2094 15.8838C81.9232 15.7407 81.0503 15.5833 79.8483 16.0984C79.2759 15.5976 77.573 14.7676 75.3407 15.4545C75.2692 16.0984 75.2548 17.6868 75.77 18.8888C75.4123 19.1035 74.6538 19.9191 74.4821 21.4646C76.6286 20.606 80.4493 19.7045 78.5604 22.9671C76.1993 27.0454 68.2574 24.8989 69.3306 21.2499C66.8264 22.6809 61.6463 24.3408 60.9594 19.5328C60.1008 13.5227 65.0377 13.952 65.2523 16.0984C66.3971 15.2398 67.6135 11.8055 64.8231 10.9469C60.1008 9.49393 58.813 16.3131 58.813 17.6009H58.169C58.169 13.952 59.8862 9.87371 62.8912 9.65907C62.3904 8.72893 60.9165 7.16917 59.0276 8.37119V7.51261L60.1008 6.43938C59.0992 5.2946 57.0958 2.40403 57.0958 0C57.0958 2.40403 55.0924 5.2946 54.0908 6.43938L55.164 7.51261V8.37119C53.2751 7.16917 51.8012 8.72893 51.3004 9.65907C54.3054 9.87371 56.0226 13.952 56.0226 17.6009H55.3786C55.3786 16.3131 54.0908 9.49393 49.3686 10.9469C46.5782 11.8055 47.7945 15.2398 48.9393 16.0984C49.1539 13.952 54.0908 13.5227 53.2322 19.5328C52.5453 24.3408 47.3652 22.6809 44.861 21.2499C45.9342 24.8989 37.9923 27.0454 35.6312 22.9671C33.7423 19.7045 37.563 20.606 39.7095 21.4646C39.5378 19.9191 38.7794 19.1035 38.4216 18.8888C38.9368 17.6868 38.9225 16.0984 38.8509 15.4545C36.6186 14.7676 34.9157 15.5976 34.3433 16.0984C33.1413 15.5833 32.2684 15.7407 31.9822 15.8838C32.9124 16.957 34.2575 19.1893 32.1969 19.5328C30.1363 19.8762 30.1935 16.8139 30.4797 15.2398C29.4494 15.2398 28.6195 16.2415 28.3333 16.7424C25.5858 15.7121 23.7542 17.1716 23.1818 18.0302Z" fill="#282525"/>
<path d="M74.1149 87.6733C69.9358 92.2873 64.4708 94.5943 57.7199 94.5943C54.4674 94.5943 51.3946 94.0176 48.5013 92.8641C45.627 91.7106 43.1498 90.1505 41.0697 88.1839C39.0085 86.1983 37.3728 83.8251 36.1626 81.0643C34.9713 78.3034 34.3756 75.3724 34.3756 72.2711C34.3756 69.2077 34.9618 66.3145 36.1342 63.5915C37.3256 60.8495 38.9329 58.4952 40.9563 56.5286C42.9796 54.562 45.4001 53.0113 48.2177 51.8767C51.0353 50.7232 54.0136 50.1465 57.1526 50.1465C61.8423 50.1465 66.0498 51.2716 69.775 53.5219M47.4059 56.5002C44.5505 58.0887 42.3003 60.2822 40.6551 63.0809C39.0288 65.8796 38.2157 68.9808 38.2157 72.3846C38.2157 74.8996 38.7074 77.2823 39.6907 79.5325C40.674 81.7828 41.9977 83.7211 43.6618 85.3474C45.3258 86.9736 47.849 88.2595 50.1749 89.205" stroke="#282525" stroke-width="2.32676"/>
<path d="M53.0529 74.0298C53.0529 74.0298 62.7726 74.0298 82.2121 74.0298C81.9284 79.1354 79.9334 83.6833 76.2271 87.6733C72.048 92.2873 66.583 94.5943 59.8321 94.5943C56.5796 94.5943 53.5067 94.0176 50.6135 92.8641C47.7392 91.7106 45.262 90.1505 43.1819 88.1838C41.1207 86.1983 39.485 83.8251 38.2748 81.0643C37.0835 78.3034 36.4878 75.3724 36.4878 72.2711C36.4878 69.2077 37.074 66.3145 38.2464 63.5915C39.4377 60.8495 41.0451 58.4952 43.0685 56.5286C45.0918 54.562 47.5123 53.0113 50.3299 51.8767C53.1475 50.7232 56.1258 50.1465 59.2648 50.1465C63.9545 50.1465 68.162 51.2716 71.8872 53.5219C75.6125 55.7533 78.1842 58.6938 79.6025 62.3434C75.5207 61.334 72.2698 58.2683 68.5685 56.2733C65.9022 54.8172 62.9144 54.0892 59.6052 54.0892C56.1069 54.0892 52.3924 54.8929 49.5181 56.5002C46.6627 58.0887 44.4124 60.2822 42.7673 63.0809C41.141 65.8796 40.3279 68.9808 40.3279 72.3846C40.3279 74.8996 40.8195 77.2823 41.8029 79.5325C42.7862 81.7828 44.1099 83.7211 45.774 85.3474C47.438 86.9736 49.9611 88.2595 52.2871 89.205C54.613 90.1505 57.0713 90.6232 59.6619 90.6232C64.9378 90.6232 69.2966 88.8457 72.7382 85.2906C74.9884 82.9269 76.4256 80.4686 77.0496 77.9157H66.5921C61.8039 77.9157 57.1122 76.5692 53.0529 74.0298Z" fill="#282525"/>
</svg>
